<svg width="177" height="40" viewBox="0 0 177 40" xmlns="http://www.w3.org/2000/svg"><g fill="#FFF" fill-rule="evenodd"><path d="M57.37 12.364c1.025 0 2.05-.035 3.323.178L60.8 8H42.625c-.034 2.735-.457 20.856-1.025 24.8h18.634l.104-4.791c-.703.179-3.498.39-4.522.39-1.027 0-8.381-.034-8.381-.034l.217-6.174h6.217c1.415 0 3.819.035 5.021.174l.104-4.5H47.807l.191-5.501h9.373zm13.85-4.327l-.701 20.47s4.752.109 5.789.109c1.017 0 3.79-.216 4.492-.393l-.102 4.577H64.8c.56-3.942.981-22.067 1.016-24.8h5.403v.037zM93.954 8C82.551 8 80.8 18.597 80.8 21.335c0 4.905 3.326 12.265 12.797 12.265 5.472 0 12.803-3.631 12.803-12.888C106.4 12.312 100.583 8 93.955 8m-.534 21.406c-1.48 0-7.364-.748-7.364-8.036 0-6.91 4.267-9.102 7.935-9.102 2.3 0 7.295 1.074 7.295 8.23 0 3.65-2.003 8.908-7.866 8.908m20.862 3.394l.918-20.683h4.456c1.398 0 3.944-.266 3.944 2.466s-2.514 4.541-7.215 3.722l1.31 3.975c4.418.57 11.104-.317 11.104-7.91 0-6.929-6.296-6.353-7.357-6.353L110.145 8c-.193 3.07-.442 19.285-1.345 24.8h5.483zm35.225-6.201C149.297 26.03 142.945 8 142.945 8h-6.596s-8.769 18.438-9.576 19.933c-.808 1.491-2.034 3.907-2.773 4.867h5.615l4.528-9.487h9.014v.054c.562 1.243 2.734 7.389 3.23 9.342H152c-.386-.782-2.28-5.543-2.492-6.11zm-13.858-7.23l3.613-7.993 2.77 7.993h-6.383zM154.904 8c-.035 2.734-.708 20.855-1.304 24.8h6.156c.023-3.319.392-19.284 1.044-24.8h-5.896z"/><path d="M176.8 8h-6.596C168.52 10.78 160 19.975 160 19.975c1.103 1.227 7.224 8.372 9.925 12.825h6.451l-10.065-12.897L176.8 8zM4.656 29.6c3.379 4.938 9.011 8.175 15.393 8.175 2.07 0 4.06-.34 5.922-.971l.429 1.368a19.967 19.967 0 0 1-6.35 1.028c-7.037 0-13.233-3.628-16.85-9.132l1.456-.468z"/><path d="M7.945 28.8c2.855 3.81 7.275 6.255 12.24 6.255 1.713 0 3.364-.292 4.908-.831l.507 1.64a16.163 16.163 0 0 1-5.415.936c-5.662 0-10.68-2.935-13.785-7.452l1.545-.548z"/><path d="M11.274 28a12.502 12.502 0 0 0 9.056 3.863c1.372 0 2.698-.22 3.935-.629l.535 1.628a13.827 13.827 0 0 1-4.47.738c-4.302 0-8.153-1.964-10.73-5.056L11.274 28zm-8.05-1.097l17.877-5.617.499 1.524L2.547 28.8l.003-.005A19.725 19.725 0 0 1 0 19.065C0 10.133 5.917 2.57 14.086 0l.43 1.343C6.96 3.739 1.49 10.768 1.49 19.064c0 2.799.627 5.457 1.74 7.839h-.005z"/><path d="M5.231 23.618l15.05-4.741.519 1.505L4.29 25.6l-.002-.004A17.119 17.119 0 0 1 3.2 19.564C3.2 11.9 8.217 5.412 15.143 3.2l.514 1.551C9.302 6.731 4.69 12.616 4.69 19.564c0 1.397.187 2.752.537 4.041l.003.013z"/><path d="M6.587 21.6L20 17.287l-.49-1.56-11.593 3.73v-.004c-.003-.046-.003-.092-.003-.137 0-5.672 3.732-10.47 8.864-12.071l-.53-1.645C10.539 7.448 6.4 12.886 6.4 19.316c0 .777.059 1.54.175 2.284h.012z"/><path d="M16.532 8.517A11.296 11.296 0 0 1 19.928 8C26.152 8 31.2 13.015 31.2 19.197c0 6.187-5.048 11.203-11.272 11.203a11.267 11.267 0 0 1-7.738-3.059l-.039.008 11.048-3.567-.043-.013-3.27-10-.012-.013L8.8 17.33l.006.029c.696-4.19 3.73-7.594 7.726-8.843"/></g></svg>